<?xml version="1.0" encoding="UTF-8" standalone="no"?>
<svg width="585" height="585" viewBox="0 0 585 585" fill="none" xmlns="http://www.w3.org/2000/svg">
<path d="M90.2691 78.4286L90.2305 78.4314L90.192 78.4348C79.3455 79.3755 71.24 83.5103 65.9735 90.2656C60.8292 96.8643 59 105.19 59 113.457V372.467C59 385.895 63.9227 397.091 74.2996 410.942L74.3229 410.973L74.3465 411.003L129.929 483.227L129.947 483.25L129.965 483.273C134.977 489.657 140.181 494.049 146.941 496.52C153.495 498.915 160.912 499.273 169.831 498.846L169.869 498.845L169.907 498.842L444.495 482.236L444.527 482.234L444.559 482.232C456.932 481.351 466.24 477.95 472.281 471.081C478.271 464.269 480 455.221 480 445.532V154.139C480 148.065 478.648 143.454 474.911 139.121C472.105 135.866 467.906 132.802 462.906 129.153C462.264 128.685 461.61 128.207 460.944 127.718L460.896 127.684L460.848 127.65L385.409 74.5482C376.132 67.8013 368.902 63.4759 359.912 61.4352C351.126 59.4411 341.152 59.7507 326.683 60.9927C326.671 60.9937 326.659 60.9948 326.647 60.9958L90.2691 78.4286Z" fill="white" stroke="white" stroke-width="12"/>
<path d="M135.528 140.672C148.789 151.434 153.764 150.612 178.665 148.953L413.427 134.871C418.407 134.871 414.266 129.909 412.606 129.084L373.617 100.928C366.146 95.1345 356.193 88.4993 337.117 90.1589L109.797 106.722C101.507 107.543 99.8505 111.683 103.153 115.003L135.528 140.672ZM149.622 195.325V442.076C149.622 455.338 156.256 460.299 171.188 459.478L429.191 444.565C444.129 443.745 445.793 434.623 445.793 423.851V178.755C445.793 168 441.651 162.199 432.507 163.028L162.891 178.755C152.941 179.59 149.622 184.562 149.622 195.325ZM404.322 208.561C405.976 216.021 404.322 223.474 396.841 224.313L384.41 226.787V408.955C373.617 414.75 363.664 418.063 355.37 418.063C342.092 418.063 338.766 413.919 328.82 401.505L247.506 273.987V397.365L273.237 403.165C273.237 403.165 273.237 418.063 252.478 418.063L195.249 421.379C193.586 418.063 195.249 409.789 201.054 408.131L215.988 403.996V240.869L195.252 239.209C193.59 231.749 197.731 220.993 209.354 220.158L270.748 216.024L355.37 345.203V230.927L333.795 228.453C332.139 219.334 338.766 212.712 347.063 211.891L404.322 208.561ZM90.7104 84.3654L327.16 66.9713C356.196 64.4835 363.667 66.15 381.917 79.3932L457.395 132.387C469.849 141.5 474 143.981 474 153.915V444.565C474 462.781 467.357 473.553 444.133 475.201L169.545 491.765C152.112 492.596 143.814 490.114 134.684 478.514L79.1015 406.474C69.1417 393.214 65 383.293 65 371.686V113.336C65 98.4402 71.6444 86.0149 90.7104 84.3654Z" fill="black"/>
<g filter="url(#filter0_dd)">
<rect x="397.439" y="393.578" width="124.422" height="124.422" rx="62.2108" fill="white"/>
<rect x="393.439" y="389.578" width="132.422" height="132.422" rx="66.2108" stroke="white" stroke-width="8"/>
</g>
<rect x="401.439" y="397.578" width="116.422" height="116.422" rx="58.2108" fill="white" stroke="black" stroke-width="8"/>
<path d="M425.982 481H455.312V473.013H435.669V435.182H425.982V481ZM468.29 435.182H457.306L471.378 458.091L457.037 481H468.134L477.53 465.362H477.888L487.284 481H498.426L484.13 458.091L498.113 435.182H487.173L477.888 450.798H477.53L468.29 435.182Z" fill="black"/>
<defs>
<filter  x="374.439" y="380.578" width="170.422" height="170.422" filterUnits="userSpaceOnUse" color-interpolation-filters="sRGB">
<feFlood flood-opacity="0" result="BackgroundImageFix"/>
<feColorMatrix in="SourceAlpha" type="matrix" values="0 0 0 0 0 0 0 0 0 0 0 0 0 0 0 0 0 0 127 0"/>
<feOffset dy="4"/>
<feGaussianBlur stdDeviation="3"/>
<feColorMatrix type="matrix" values="0 0 0 0 0 0 0 0 0 0 0 0 0 0 0 0 0 0 0.05 0"/>
<feBlend mode="normal" in2="BackgroundImageFix" result="effect1_dropShadow"/>
<feColorMatrix in="SourceAlpha" type="matrix" values="0 0 0 0 0 0 0 0 0 0 0 0 0 0 0 0 0 0 127 0"/>
<feOffset dy="10"/>
<feGaussianBlur stdDeviation="7.5"/>
<feColorMatrix type="matrix" values="0 0 0 0 0 0 0 0 0 0 0 0 0 0 0 0 0 0 0.1 0"/>
<feBlend mode="normal" in2="effect1_dropShadow" result="effect2_dropShadow"/>
<feBlend mode="normal" in="SourceGraphic" in2="effect2_dropShadow" result="shape"/>
</filter>
</defs>
</svg>
